<svg width="102" height="102" viewBox="0 0 102 102" fill="none" xmlns="http://www.w3.org/2000/svg">
<path d="M51 0C22.848 0 0 22.848 0 51C0 79.152 22.848 102 51 102C79.152 102 102 79.152 102 51C102 22.848 79.152 0 51 0ZM37.179 72.879L18.87 54.57C16.881 52.581 16.881 49.368 18.87 47.379C20.859 45.39 24.072 45.39 26.061 47.379L40.8 62.067L75.888 26.979C77.877 24.99 81.09 24.99 83.079 26.979C85.068 28.968 85.068 32.181 83.079 34.17L44.37 72.879C42.432 74.868 39.168 74.868 37.179 72.879Z" fill="#19DA44"/>
</svg>
