<svg width="32" height="32" viewBox="0 0 32 32" fill="none" xmlns="http://www.w3.org/2000/svg">
<path d="M15.8333 0.166687C7.09333 0.166687 0 7.26002 0 16C0 24.74 7.09333 31.8334 15.8333 31.8334C24.5733 31.8334 31.6667 24.74 31.6667 16C31.6667 7.26002 24.5733 0.166687 15.8333 0.166687ZM15.8333 4.91669C18.4617 4.91669 20.5833 7.03835 20.5833 9.66669C20.5833 12.295 18.4617 14.4167 15.8333 14.4167C13.205 14.4167 11.0833 12.295 11.0833 9.66669C11.0833 7.03835 13.205 4.91669 15.8333 4.91669ZM15.8333 27.4C11.875 27.4 8.37583 25.3734 6.33333 22.3017C6.38083 19.1509 12.6667 17.425 15.8333 17.425C18.9842 17.425 25.2858 19.1509 25.3333 22.3017C23.2908 25.3734 19.7917 27.4 15.8333 27.4Z" fill="#784ADE"/>
</svg>
