<svg width="102" height="102" viewBox="0 0 102 102" fill="none" xmlns="http://www.w3.org/2000/svg">
<circle cx="51" cy="51" r="51" fill="#FFDD63"/>
<path d="M39.6667 23C36.55 23 34 25.52 34 28.6V37.476C34 38.96 34.595 40.388 35.6717 41.452L45.3333 51L35.6433 60.576C34.595 61.64 34 63.068 34 64.552V73.4C34 76.48 36.55 79 39.6667 79H62.3333C65.45 79 68 76.48 68 73.4V64.552C68 63.068 67.405 61.64 66.3567 60.604L56.6667 51L66.3283 41.48C67.405 40.416 68 38.988 68 37.504V28.6C68 25.52 65.45 23 62.3333 23H39.6667ZM62.3333 63.6V70.6C62.3333 72.14 61.0583 73.4 59.5 73.4H42.5C40.9417 73.4 39.6667 72.14 39.6667 70.6V63.6L51 52.4L62.3333 63.6ZM51 49.6L39.6667 38.4V31.4C39.6667 29.86 40.9417 28.6 42.5 28.6H59.5C61.0583 28.6 62.3333 29.86 62.3333 31.4V38.4L51 49.6Z" fill="black" fill-opacity="0.87"/>
<path d="M68 82.5L69 79.5V78.5C69 78.0001 70 77.7631 71 78C72 78.2369 72 78 73 78.5C74 79.0001 74.5 81 75 81.5C75.5 82 77 82.5 78 83C79 83.5 78.5 83 78.5 82.5C78.5 82 79.5 82 80 81C80.5 80.0001 81.5 80 82.5 79C83.5 78 84.5 78.5 85 77C85.5 75.5 86 75.5 86.5 74C87 72.5 88 72 88.8026 71C89.6052 70.0001 91.5 70.5 92 70C92.5 69.5 93.5 70.5 94.5 71C95.5 71.5 96.5 72.5 97 73C97.4 73.4 96.1667 74.8334 95.5 75.5C95 76.3334 93.9 78.1 93.5 78.5C93 79 93.5 79.5 93 80C92.5 80.5 93 80.5 92.5 81C92 81.5 91.5 82.5 91 83C90.5 83.5 89.5 85 88.5 85.5C87.5 86 87.5 86.5 87 87C86.5 87.5 85.5 88 85 88.5L83 90.5C82.5 91 81.5 91.5 81 92C80.6 92.4 80.1667 92.5 80 92.5C79.5 92.6667 78.4 93 78 93C77.6 93 76.1667 92.3334 75.5 92L73.5 90.5L70 87L68 82.5Z" fill="white"/>
<path d="M82 62C70.96 62 62 70.96 62 82C62 93.04 70.96 102 82 102C93.04 102 102 93.04 102 82C102 70.96 93.04 62 82 62ZM76.58 90.58L69.4 83.4C68.62 82.62 68.62 81.36 69.4 80.58C70.18 79.8 71.44 79.8 72.22 80.58L78 86.34L91.76 72.58C92.54 71.8 93.8 71.8 94.58 72.58C95.36 73.36 95.36 74.62 94.58 75.4L79.4 90.58C78.64 91.36 77.36 91.36 76.58 90.58Z" fill="#19DA44"/>
</svg>
