<svg width="132" height="35" viewBox="0 0 132 35" fill="none" xmlns="http://www.w3.org/2000/svg">
<g clip-path="url(#clip0_1_2826)">
<path d="M88.88 1.79487H10.56C9.10195 1.79487 7.91998 3.00026 7.91998 4.48718V30.5128C7.91998 31.9997 9.10195 33.2051 10.56 33.2051H88.88C90.338 33.2051 91.52 31.9997 91.52 30.5128V4.48718C91.52 3.00026 90.338 1.79487 88.88 1.79487Z" fill="#784ADE"/>
<path d="M97.5612 9.70864V26.0256H94.7328V9.70864H97.5612ZM100.47 26.0256V13.7878H103.298V26.0256H100.47ZM101.892 12.051C101.444 12.051 101.058 11.8996 100.735 11.5968C100.412 11.2888 100.25 10.9196 100.25 10.4894C100.25 10.0539 100.412 9.68468 100.735 9.38197C101.058 9.07388 101.444 8.91987 101.892 8.91987C102.345 8.91987 102.729 9.07388 103.048 9.38197C103.37 9.68468 103.532 10.0539 103.532 10.4894C103.532 10.9196 103.37 11.2888 103.048 11.5968C102.729 11.8996 102.345 12.051 101.892 12.051ZM109.034 18.855V26.0256H106.205V13.7878H108.909V15.8674H109.05C109.326 15.1822 109.766 14.6377 110.37 14.2341C110.979 13.8304 111.732 13.6286 112.628 13.6286C113.456 13.6286 114.177 13.8091 114.792 14.1703C115.411 14.5315 115.891 15.0547 116.229 15.7399C116.573 16.4251 116.743 17.2563 116.737 18.2337V26.0256H113.909V18.6798C113.909 17.8618 113.7 17.2218 113.284 16.7597C112.872 16.2976 112.302 16.0665 111.573 16.0665C111.078 16.0665 110.638 16.1781 110.253 16.4012C109.872 16.6189 109.573 16.935 109.354 17.3492C109.14 17.7636 109.034 18.2655 109.034 18.855ZM124.925 26.2646C123.722 26.2646 122.683 26.0097 121.807 25.4998C120.937 24.9846 120.269 24.2569 119.8 23.3167C119.331 22.3713 119.097 21.2586 119.097 19.9784C119.097 18.7196 119.331 17.6149 119.8 16.664C120.273 15.708 120.935 14.9644 121.784 14.4332C122.633 13.8968 123.63 13.6286 124.776 13.6286C125.515 13.6286 126.214 13.7507 126.87 13.9951C127.531 14.2341 128.115 14.6059 128.62 15.1105C129.13 15.615 129.532 16.2578 129.823 17.0385C130.115 17.814 130.26 18.7382 130.26 19.8112V20.6955H120.424V18.7515H127.55C127.545 18.1991 127.427 17.7078 127.198 17.2775C126.969 16.842 126.649 16.4994 126.237 16.2498C125.831 16.0001 125.357 15.8753 124.815 15.8753C124.237 15.8753 123.729 16.0187 123.291 16.3055C122.854 16.587 122.513 16.9588 122.268 17.4209C122.029 17.8777 121.906 18.3797 121.901 18.9267V20.6238C121.901 21.3356 122.029 21.9463 122.284 22.4563C122.539 22.9609 122.895 23.3486 123.354 23.6195C123.812 23.8851 124.349 24.0179 124.963 24.0179C125.375 24.0179 125.748 23.9595 126.081 23.8426C126.414 23.7204 126.703 23.5425 126.948 23.3088C127.193 23.0751 127.377 22.7856 127.502 22.4404L130.143 22.7431C129.977 23.4548 129.659 24.0763 129.19 24.6074C128.726 25.1333 128.133 25.5423 127.409 25.8344C126.685 26.1212 125.857 26.2646 124.925 26.2646Z" fill="#784ADE"/>
<path d="M23.755 12.1865V9.70864H36.5206V12.1865H31.5753V26.0256H28.7003V12.1865H23.755ZM38.8566 26.0256V13.7878H41.6847V26.0256H38.8566ZM40.2785 12.051C39.8306 12.051 39.4451 11.8996 39.1222 11.5968C38.7993 11.2888 38.6378 10.9196 38.6378 10.4894C38.6378 10.0539 38.7993 9.68468 39.1222 9.38197C39.4451 9.07388 39.8306 8.91987 40.2785 8.91987C40.7316 8.91987 41.117 9.07388 41.4347 9.38197C41.7576 9.68468 41.9191 10.0539 41.9191 10.4894C41.9191 10.9196 41.7576 11.2888 41.4347 11.5968C41.117 11.8996 40.7316 12.051 40.2785 12.051ZM49.8273 26.2646C48.6293 26.2646 47.6007 25.9964 46.7413 25.46C45.8872 24.9235 45.2283 24.1826 44.7648 23.2371C44.3064 22.2863 44.0773 21.1921 44.0773 19.9546C44.0773 18.7116 44.3116 17.6149 44.7804 16.664C45.2492 15.708 45.9106 14.9644 46.7648 14.4332C47.6241 13.8968 48.6398 13.6286 49.8116 13.6286C50.7856 13.6286 51.6476 13.8118 52.3976 14.1783C53.1528 14.5394 53.7544 15.0521 54.2023 15.716C54.6502 16.3746 54.9054 17.1448 54.9679 18.0264H52.2648C52.1554 17.4369 51.895 16.9456 51.4835 16.5525C51.0772 16.1542 50.5331 15.955 49.8507 15.955C49.2726 15.955 48.7648 16.1144 48.3272 16.433C47.8898 16.7464 47.5486 17.1979 47.3039 17.7874C47.0643 18.3771 46.9445 19.0834 46.9445 19.9067C46.9445 20.7406 47.0643 21.4577 47.3039 22.0579C47.5434 22.6528 47.8794 23.1123 48.3117 23.4363C48.7492 23.7549 49.2622 23.9143 49.8507 23.9143C50.2674 23.9143 50.6398 23.8346 50.9679 23.6753C51.3012 23.5107 51.5799 23.2743 51.8039 22.9662C52.0278 22.6581 52.1815 22.2837 52.2648 21.8428H54.9679C54.9002 22.7086 54.6502 23.4761 54.2179 24.1453C53.7856 24.8093 53.1971 25.3299 52.4522 25.707C51.7075 26.0788 50.8325 26.2646 49.8273 26.2646ZM59.8683 22.1854L59.8605 18.7037H60.3136L64.6261 13.7878H67.9308L62.6261 19.8112H62.0402L59.8683 22.1854ZM57.2902 26.0256V9.70864H60.1183V26.0256H57.2902ZM64.8214 26.0256L60.9152 20.4565L62.8215 18.4248L68.2042 26.0256H64.8214ZM74.634 26.2646C73.4308 26.2646 72.3917 26.0097 71.5167 25.4998C70.6469 24.9846 69.9777 24.2569 69.5089 23.3167C69.0402 22.3713 68.8058 21.2586 68.8058 19.9784C68.8058 18.7196 69.0402 17.6149 69.5089 16.664C69.9829 15.708 70.6443 14.9644 71.4933 14.4332C72.3423 13.8968 73.3397 13.6286 74.4855 13.6286C75.2251 13.6286 75.923 13.7507 76.5792 13.9951C77.2407 14.2341 77.8241 14.6059 78.3293 15.1105C78.8397 15.615 79.2407 16.2578 79.5324 17.0385C79.824 17.814 79.9698 18.7382 79.9698 19.8112V20.6955H70.1339V18.7515H77.2589C77.2537 18.1991 77.1365 17.7078 76.9074 17.2775C76.6782 16.842 76.3579 16.4994 75.9464 16.2498C75.5402 16.0001 75.0662 15.8753 74.5246 15.8753C73.9464 15.8753 73.4386 16.0187 73.0011 16.3055C72.5636 16.587 72.2225 16.9588 71.9777 17.4209C71.7381 17.8777 71.6157 18.3797 71.6105 18.9267V20.6238C71.6105 21.3356 71.7381 21.9463 71.9933 22.4563C72.2486 22.9609 72.6053 23.3486 73.0636 23.6195C73.5219 23.8851 74.0584 24.0179 74.673 24.0179C75.0844 24.0179 75.4569 23.9595 75.7902 23.8426C76.1235 23.7204 76.4125 23.5425 76.6574 23.3088C76.9022 23.0751 77.0871 22.7856 77.212 22.4404L79.8527 22.7431C79.686 23.4548 79.3683 24.0763 78.8996 24.6074C78.436 25.1333 77.8423 25.5423 77.1183 25.8344C76.3943 26.1212 75.5662 26.2646 74.634 26.2646ZM88.3547 13.7878V16.0187H81.4562V13.7878H88.3547ZM83.1593 10.8559H85.9875V22.3447C85.9875 22.7325 86.0448 23.0299 86.1593 23.2371C86.2791 23.439 86.4354 23.577 86.6281 23.6514C86.8207 23.7258 87.0343 23.7629 87.2687 23.7629C87.4458 23.7629 87.6073 23.7497 87.7531 23.7231C87.9041 23.6965 88.0185 23.6727 88.0968 23.6514L88.5738 25.9061C88.4224 25.9592 88.2059 26.0177 87.925 26.0814C87.6489 26.1452 87.3104 26.1823 86.9094 26.1929C86.201 26.2142 85.563 26.1053 84.9953 25.8663C84.4276 25.622 83.977 25.2449 83.6437 24.7349C83.3156 24.225 83.1541 23.5877 83.1593 22.8228V10.8559Z" fill="white"/>
<path d="M18.48 0H15.84V3.58974H18.48V0Z" fill="#F5F3FE"/>
<path d="M18.48 6.28205H15.84V9.8718H18.48V6.28205Z" fill="#F5F3FE"/>
<path d="M18.48 12.5641H15.84V16.1538H18.48V12.5641Z" fill="#F5F3FE"/>
<path d="M18.48 18.8462H15.84V22.4359H18.48V18.8462Z" fill="#F5F3FE"/>
<path d="M18.48 25.1282H15.84V28.7179H18.48V25.1282Z" fill="#F5F3FE"/>
<path d="M18.48 31.4103H15.84V35H18.48V31.4103Z" fill="#F5F3FE"/>
<path d="M6.16 24.2308C9.56207 24.2308 12.32 21.4182 12.32 17.9487C12.32 14.4792 9.56207 11.6667 6.16 11.6667C2.75793 11.6667 0 14.4792 0 17.9487C0 21.4182 2.75793 24.2308 6.16 24.2308Z" fill="#F5F3FE"/>
</g>
<defs>
<clipPath id="clip0_1_2826">
<rect width="132" height="35" fill="white"/>
</clipPath>
</defs>
</svg>
